<mxfile host="Electron" modified="2023-12-15T06:53:22.724Z" agent="Mozilla/5.0 (Windows NT 10.0; Win64; x64) AppleWebKit/537.36 (KHTML, like Gecko) draw.io/21.2.8 Chrome/112.0.5615.165 Electron/24.2.0 Safari/537.36" etag="3bSU_OsVfqTNItjV7l3l" version="21.2.8" type="device">
  <diagram name="Page-1" id="wdU2vlvLfLhHSGHgqa0V">
    <mxGraphModel dx="6136" dy="1640" grid="1" gridSize="10" guides="1" tooltips="1" connect="1" arrows="1" fold="1" page="1" pageScale="1" pageWidth="3300" pageHeight="4681" math="0" shadow="0">
      <root>
        <mxCell id="0" />
        <mxCell id="1" parent="0" />
        <mxCell id="eCz0pDOJpor3ejvm-4k_-3" value="" style="rounded=0;whiteSpace=wrap;html=1;fillColor=#1e1e1e;" vertex="1" parent="1">
          <mxGeometry x="1410" y="210" width="1130" height="610" as="geometry" />
        </mxCell>
        <mxCell id="08-NsosBbDU-mmR43x8U-6" value="&lt;font style=&quot;font-size: 18px;&quot; color=&quot;#ffffcc&quot;&gt;CMakeLists.txt&lt;/font&gt;" style="text;html=1;strokeColor=none;fillColor=none;align=center;verticalAlign=middle;whiteSpace=wrap;rounded=0;" parent="1" vertex="1">
          <mxGeometry x="700" y="140" width="150" height="30" as="geometry" />
        </mxCell>
        <mxCell id="08-NsosBbDU-mmR43x8U-7" value="" style="rounded=0;whiteSpace=wrap;html=1;fillColor=#1e1e1e;" parent="1" vertex="1">
          <mxGeometry x="520" y="180" width="760" height="320" as="geometry" />
        </mxCell>
        <mxCell id="08-NsosBbDU-mmR43x8U-31" value="&lt;span style=&quot;font-size: 70px;&quot;&gt;Dependencies: FetchContent&lt;/span&gt;" style="text;html=1;strokeColor=none;fillColor=none;align=center;verticalAlign=middle;whiteSpace=wrap;rounded=0;" parent="1" vertex="1">
          <mxGeometry x="-670" y="77.5" width="1077" height="382.5" as="geometry" />
        </mxCell>
        <mxCell id="MFZtFx-qUxBc-n4n6ePM-2" value="&lt;font style=&quot;font-size: 33px;&quot;&gt;Getting the dependencies&lt;/font&gt;" style="rounded=0;whiteSpace=wrap;html=1;" parent="1" vertex="1">
          <mxGeometry x="640" y="110" width="510" height="60" as="geometry" />
        </mxCell>
        <mxCell id="MFZtFx-qUxBc-n4n6ePM-10" value="&lt;font style=&quot;font-size: 33px;&quot;&gt;Link against targets in the dependency&lt;/font&gt;" style="rounded=0;whiteSpace=wrap;html=1;" parent="1" vertex="1">
          <mxGeometry x="1640" y="130" width="620" height="60" as="geometry" />
        </mxCell>
        <mxCell id="eCz0pDOJpor3ejvm-4k_-1" value="&lt;div style=&quot;color: rgb(212, 212, 212); background-color: rgb(30, 30, 30); font-family: Consolas, &amp;quot;Courier New&amp;quot;, monospace; font-weight: normal; font-size: 24px; line-height: 32px;&quot;&gt;&lt;div&gt;&lt;span style=&quot;color: #569cd6;&quot;&gt;include&lt;/span&gt;&lt;span style=&quot;color: #d4d4d4;&quot;&gt;(FetchContent)&lt;/span&gt;&lt;/div&gt;&lt;div&gt;&lt;span style=&quot;color: #d4d4d4;&quot;&gt;FetchContent_Declare(&lt;/span&gt;&lt;/div&gt;&lt;div&gt;&lt;span style=&quot;color: #d4d4d4;&quot;&gt;&amp;nbsp; fmt&lt;/span&gt;&lt;/div&gt;&lt;div&gt;&lt;span style=&quot;color: #d4d4d4;&quot;&gt;&amp;nbsp; GIT_REPOSITORY https://github.com/fmtlib/fmt.git&lt;/span&gt;&lt;/div&gt;&lt;div&gt;&lt;span style=&quot;color: #d4d4d4;&quot;&gt;&amp;nbsp; GIT_TAG 10.1.1&lt;/span&gt;&lt;/div&gt;&lt;div&gt;&lt;span style=&quot;color: #d4d4d4;&quot;&gt;)&lt;/span&gt;&lt;/div&gt;&lt;br&gt;&lt;div&gt;&lt;span style=&quot;color: #d4d4d4;&quot;&gt;FetchContent_MakeAvailable(fmt)&lt;/span&gt;&lt;/div&gt;&lt;/div&gt;" style="text;whiteSpace=wrap;html=1;" vertex="1" parent="1">
          <mxGeometry x="580" y="190" width="680" height="270" as="geometry" />
        </mxCell>
        <mxCell id="eCz0pDOJpor3ejvm-4k_-2" value="&lt;div style=&quot;color: rgb(212, 212, 212); background-color: rgb(30, 30, 30); font-family: Consolas, &amp;quot;Courier New&amp;quot;, monospace; font-weight: normal; font-size: 24px; line-height: 32px;&quot;&gt;&lt;div&gt;&lt;span style=&quot;color: #569cd6;&quot;&gt;cmake_minimum_required&lt;/span&gt;&lt;span style=&quot;color: #d4d4d4;&quot;&gt;(VERSION 3.21)&lt;/span&gt;&lt;/div&gt;&lt;div&gt;&lt;span style=&quot;color: #569cd6;&quot;&gt;project&lt;/span&gt;&lt;span style=&quot;color: #d4d4d4;&quot;&gt;(CustomTargets)&lt;/span&gt;&lt;/div&gt;&lt;br&gt;&lt;div&gt;&lt;span style=&quot;color: #569cd6;&quot;&gt;list&lt;/span&gt;&lt;span style=&quot;color: #d4d4d4;&quot;&gt;(APPEND CMAKE_MODULE_PATH &lt;/span&gt;&lt;span style=&quot;color: #ce9178;&quot;&gt;&quot;${CMAKE_SOURCE_DIR}/cmake&quot;&lt;/span&gt;&lt;span style=&quot;color: #d4d4d4;&quot;&gt;)&lt;/span&gt;&lt;/div&gt;&lt;br&gt;&lt;div&gt;&lt;span style=&quot;color: #569cd6;&quot;&gt;set&lt;/span&gt;&lt;span style=&quot;color: #d4d4d4;&quot;&gt;(CMAKE_CXX_STANDARD 23)&lt;/span&gt;&lt;/div&gt;&lt;div&gt;&lt;span style=&quot;color: #569cd6;&quot;&gt;set&lt;/span&gt;&lt;span style=&quot;color: #d4d4d4;&quot;&gt;(CMAKE_CXX_STANDARD_REQUIRED &lt;/span&gt;&lt;span style=&quot;color: #569cd6;&quot;&gt;ON&lt;/span&gt;&lt;span style=&quot;color: #d4d4d4;&quot;&gt;)&lt;/span&gt;&lt;/div&gt;&lt;br&gt;&lt;div&gt;&lt;span style=&quot;color: #569cd6;&quot;&gt;include&lt;/span&gt;&lt;span style=&quot;color: #d4d4d4;&quot;&gt;(AddFmt)&lt;/span&gt;&lt;/div&gt;&lt;br&gt;&lt;div&gt;&lt;span style=&quot;color: #569cd6;&quot;&gt;add_executable&lt;/span&gt;&lt;span style=&quot;color: #d4d4d4;&quot;&gt;(rooster main.cpp person.cpp)&lt;/span&gt;&lt;/div&gt;&lt;div&gt;&lt;span style=&quot;color: #569cd6;&quot;&gt;target_include_directories&lt;/span&gt;&lt;span style=&quot;color: #d4d4d4;&quot;&gt;(rooster PRIVATE &lt;/span&gt;&lt;span style=&quot;color: #569cd6;&quot;&gt;${CMAKE_CURRENT_SOURCE_DIR}&lt;/span&gt;&lt;span style=&quot;color: #d4d4d4;&quot;&gt;)&lt;/span&gt;&lt;/div&gt;&lt;div&gt;&lt;span style=&quot;color: #569cd6;&quot;&gt;target_link_libraries&lt;/span&gt;&lt;span style=&quot;color: #d4d4d4;&quot;&gt;(rooster PRIVATE fmt::fmt)&lt;/span&gt;&lt;/div&gt;&lt;br&gt;&lt;div&gt;&lt;span style=&quot;color: #569cd6;&quot;&gt;include&lt;/span&gt;&lt;span style=&quot;color: #d4d4d4;&quot;&gt;(ClangFormat)&lt;/span&gt;&lt;/div&gt;&lt;div&gt;&lt;span style=&quot;color: #d4d4d4;&quot;&gt;add_clang_format_target(format-code &lt;/span&gt;&lt;span style=&quot;color: #569cd6;&quot;&gt;${PROJECT_SOURCE_DIR}&lt;/span&gt;&lt;span style=&quot;color: #d4d4d4;&quot;&gt;)&lt;/span&gt;&lt;/div&gt;&lt;/div&gt;" style="text;whiteSpace=wrap;html=1;" vertex="1" parent="1">
          <mxGeometry x="1530" y="220" width="940" height="550" as="geometry" />
        </mxCell>
      </root>
    </mxGraphModel>
  </diagram>
</mxfile>
